<?xml version="1.0" encoding="UTF-8" standalone="no"?>
<!DOCTYPE svg PUBLIC "-//W3C//DTD SVG 1.1//EN" "http://www.w3.org/Graphics/SVG/1.1/DTD/svg11.dtd">
<svg width="100%" height="100%" viewBox="0 0 24 24" version="1.1" xmlns="http://www.w3.org/2000/svg" xmlns:xlink="http://www.w3.org/1999/xlink" xml:space="preserve" xmlns:serif="http://www.serif.com/" style="fill-rule:evenodd;clip-rule:evenodd;stroke-linejoin:round;stroke-miterlimit:2;">
    <g transform="matrix(0.0144434,0,0,0.0144434,2.2061,-0.910898)">
        <path d="M260.3,213.913C260.149,213.505 259.973,213.1 259.773,212.699C259.658,212.47 259.536,212.246 259.406,212.029C259.41,211.731 259.414,211.432 259.419,211.133C259.459,208.395 259.499,205.657 259.498,202.919C259.497,197.836 259.238,192.301 258.706,186C258.268,180.826 257.613,174.7 256.06,168.485C254.537,162.391 252.425,156.568 250.382,150.936L249.095,147.363C247.168,141.974 245.175,136.402 242.21,130.969C242.189,130.932 242.169,130.895 242.148,130.858C239.425,126.015 236.266,121.697 233.212,117.522C232.606,116.694 232.001,115.868 231.404,115.043C227.499,109.642 223.583,104.411 218.616,99.793C213.49,95.027 207.834,91.067 201.8,88.02C196.748,85.168 191.541,83.323 186.939,81.691L186.261,81.451C180.755,79.498 175.504,78.006 170.208,76.89C165.854,75.974 161.597,75.433 157.479,74.91C156.761,74.819 156.043,74.728 155.326,74.635C153.873,73.67 151.426,72.13 148.138,71.835C146.099,71.502 144.067,71.149 142.037,70.797C138.17,70.125 134.17,69.43 130.14,68.88C126.356,68.365 122.658,68.11 119.081,67.864C116.426,67.681 113.917,67.509 111.457,67.239C109.011,66.971 106.567,66.62 103.979,66.249C100.381,65.733 96.662,65.199 92.838,64.888C88.888,64.567 85,64.461 81.24,64.358C78.76,64.29 76.416,64.226 74.069,64.105C71.975,63.997 69.881,63.864 67.789,63.731C63.734,63.473 59.541,63.207 55.309,63.119C50.319,63.016 45.328,63.086 40.5,63.153C39.17,63.172 37.839,63.19 36.509,63.205C32.567,63.249 28.723,63.537 25.007,63.814C22.49,64.002 20.113,64.18 17.737,64.284C15.311,64.391 12.787,64.342 10.113,64.29C6.515,64.221 2.794,64.149 -1.096,64.449C-4.961,64.749 -8.67,65.337 -12.258,65.906C-14.862,66.319 -17.321,66.709 -19.753,66.979C-21.95,67.223 -24.142,67.423 -26.462,67.636C-30.195,67.977 -34.05,68.329 -37.962,68.881C-40.6,69.066 -42.706,69.982 -44.019,70.552C-44.115,70.594 -44.209,70.636 -44.304,70.678C-44.356,70.684 -44.408,70.692 -44.46,70.699C-51.584,71.717 -58.423,73.584 -65.037,75.39L-66.418,75.767C-73.561,77.712 -80.253,80.287 -86.725,82.776L-87.42,83.043C-89.974,84.025 -91.924,85.962 -92.972,88.32C-96.576,91.139 -100.222,94.308 -104.015,97.916C-108.6,102.277 -113.436,107.067 -117.744,112.541C-121.53,117.351 -125.82,122.803 -129.371,128.882C-132.516,134.26 -135.419,140.113 -138.247,146.773C-140.355,151.735 -141.76,156.714 -143.119,161.528C-143.506,162.901 -143.893,164.273 -144.297,165.641C-146.329,172.533 -147.858,178.778 -148.968,184.732C-149.171,185.819 -149.379,186.906 -149.587,187.994C-150.577,193.168 -151.601,198.518 -152.119,204.079C-152.203,204.986 -152.163,205.899 -152.001,206.795C-151.179,211.313 -151.112,216.113 -151.111,221.468C-151.111,224.144 -151.158,226.906 -151.204,229.576C-151.249,232.197 -151.296,234.903 -151.3,237.613C-151.602,241.81 -151.555,245.903 -151.509,249.864C-151.479,252.501 -151.45,254.992 -151.52,257.46C-151.595,260.125 -151.831,262.858 -152.08,265.752C-152.405,269.525 -152.741,273.426 -152.741,277.486C-152.741,281.221 -152.534,284.871 -152.333,288.402C-152.157,291.508 -151.99,294.442 -151.963,297.337L-151.925,301.162C-151.872,306.377 -151.818,311.768 -151.818,316.995C-151.818,317.17 -151.814,317.345 -151.804,317.519C-151.664,320.186 -151.62,322.839 -151.574,325.65C-151.515,329.172 -151.455,332.814 -151.189,336.502C-150.862,341.057 -150.228,345.472 -149.614,349.742C-149.33,351.721 -149.045,353.702 -148.793,355.692C-148.066,361.44 -147.168,368.148 -145.719,375.039C-145.543,375.876 -145.26,376.686 -144.878,377.451C-144.394,378.419 -143.918,379.191 -143.539,379.786C-142.502,385.703 -141.435,391.493 -139.815,397.269C-138.304,402.657 -136.289,407.643 -134.34,412.465L-133.623,414.242C-133.228,415.224 -132.84,416.208 -132.453,417.19C-130.677,421.698 -128.84,426.358 -126.324,430.919C-123.356,436.3 -119.915,441.005 -116.052,446.157L-115.838,446.443C-112.32,451.137 -108.682,455.992 -104.132,460.395C-99.866,464.524 -94.944,468.477 -89.507,472.143C-84.042,475.829 -79.04,479.085 -73.232,481.597C-69.519,483.234 -65.839,484.379 -62.28,485.488C-60.104,486.166 -58.048,486.805 -56.096,487.522C-54.616,488.067 -53.14,488.628 -51.665,489.189C-47.623,490.727 -43.442,492.317 -39.045,493.625C-34.354,495.019 -29.674,496.059 -25.149,497.063C-23.911,497.337 -22.673,497.613 -21.441,497.894C-20.018,498.219 -18.597,498.557 -17.176,498.895C-12.843,499.926 -8.362,500.992 -3.708,501.733C1.374,502.542 6.394,502.971 11.249,503.387C12.285,503.475 13.321,503.564 14.357,503.657C20.155,504.173 25.811,504.352 32.518,504.463C34.503,504.495 36.54,504.618 38.698,504.748C41.404,504.912 44.175,505.079 47.04,505.079C48.268,505.079 49.512,505.048 50.775,504.974C57.17,504.593 63.301,503.996 69.003,503.2C73.274,502.603 77.201,501.531 81.001,500.494C83.039,499.937 84.965,499.412 86.854,498.985C87.896,498.749 88.94,498.518 89.984,498.287C94.753,497.232 99.685,496.142 104.647,494.553C110.807,492.579 116.585,490.13 121.684,487.969C124.018,486.98 125.89,485.14 126.919,482.823C129.933,476.043 130.034,469.544 129.735,464.08C129.608,461.771 129.35,459.551 129.1,457.403C128.793,454.766 128.504,452.276 128.504,449.997C128.504,444.507 126.263,439.241 122.192,435.171C120.179,433.16 117.398,432.095 114.568,432.258C111.727,432.415 109.089,433.775 107.312,435.995C105.978,437.663 101.332,438.421 97.597,439.029L96.955,439.134C94.623,439.307 92.748,440.015 91.451,440.504C91.306,440.559 91.163,440.616 91.02,440.669C90.86,440.684 90.7,440.703 90.541,440.726C84.319,441.616 77.269,442.623 70.501,442.988C63.816,443.347 57.208,443.305 50.861,442.857C49.318,442.704 47.792,442.572 46.279,442.441C43.015,442.16 39.933,441.893 37,441.431C35.342,441.168 33.589,440.777 31.733,440.363C28.983,439.749 25.882,439.057 22.549,438.688C19.87,438.172 17.488,437.881 15.181,437.6C13.15,437.352 11.224,437.118 9.239,436.738C4.042,435.203 -1.152,432.667 -5.832,430.104C-6.683,428.611 -7.751,427.569 -8.561,426.922C-8.878,426.669 -9.21,426.436 -9.555,426.224C-14.145,423.399 -17.349,419.59 -19.08,414.907C-21.165,409.261 -21.954,402.45 -22.346,397.448C-17.649,398.772 -12.741,400.028 -7.416,401.269C-5.985,401.603 -4.556,401.948 -3.127,402.291C1.042,403.296 5.354,404.335 9.785,405.136C13.77,405.856 17.701,406.302 21.502,406.734C23.413,406.951 25.324,407.167 27.229,407.419C32.187,408.075 37.139,408.501 41.927,408.911L44.689,409.15C50.945,409.699 57.032,410.017 62.16,410.257C64.16,410.351 66.158,410.481 68.157,410.611C71.868,410.851 75.706,411.101 79.629,411.135C83.384,411.161 87.049,410.978 90.591,410.793C92.838,410.676 94.961,410.565 97.08,410.511C99.315,410.452 101.662,410.547 104.142,410.646C107.475,410.78 110.92,410.917 114.542,410.708C118.122,410.499 121.503,409.983 124.772,409.483C127.227,409.109 129.546,408.754 131.786,408.556C133.509,408.424 135.292,408.355 137.18,408.281C141.181,408.124 145.318,407.961 149.664,407.196C154.04,406.426 158.007,405.118 161.844,403.852C163.648,403.257 165.352,402.695 167.025,402.214C173.613,400.319 179.054,398.436 184.15,396.283L185.174,395.85C190.292,393.692 195.584,391.459 200.705,388.401C205.802,385.36 210.735,381.824 215.791,377.588C221.522,372.783 225.66,368.741 229.208,364.484C232.908,360.044 236.398,354.909 239.585,349.219C241.85,345.777 243.189,343.01 244.476,339.155C244.632,338.685 244.753,338.204 244.839,337.716C245.328,334.919 245.903,332.162 246.513,329.242C247.05,326.672 247.605,324.014 248.093,321.337C248.638,318.341 249.049,315.394 249.447,312.543C249.826,309.827 250.184,307.263 250.638,304.753C251.08,302.311 251.605,299.883 252.16,297.313C252.795,294.375 253.451,291.337 253.984,288.235C255.088,281.814 255.96,276.503 256.726,271.524C256.999,269.757 257.286,267.992 257.573,266.227C258.181,262.477 258.811,258.6 259.31,254.689C259.762,251.143 259.853,247.75 259.942,244.469C260.006,242.051 260.068,239.767 260.271,237.591C260.457,235.591 260.699,233.583 260.955,231.457C261.38,227.937 261.818,224.298 262.013,220.509C262.022,220.339 262.026,220.168 262.026,219.998C262.026,217.262 261.026,215.148 260.3,213.913ZM241.101,229.063C240.839,231.229 240.57,233.468 240.359,235.737C240.095,238.568 240.022,241.294 239.951,243.93C239.873,246.847 239.799,249.603 239.472,252.158C239.017,255.73 238.442,259.27 237.833,263.019C237.537,264.835 237.242,266.652 236.961,268.475C236.212,273.339 235.358,278.54 234.274,284.847C233.813,287.53 233.23,290.23 232.612,293.087C232.046,295.707 231.461,298.415 230.959,301.189C230.433,304.096 230.029,306.985 229.64,309.779C229.253,312.55 228.888,315.168 228.417,317.755C227.976,320.178 227.471,322.596 226.937,325.155C226.373,327.856 225.791,330.642 225.278,333.489C224.684,335.18 224.104,336.39 222.718,338.469C222.569,338.693 222.428,338.923 222.297,339.158C219.665,343.895 216.82,348.108 213.844,351.68C211.088,354.988 207.726,358.251 202.945,362.259C198.716,365.803 194.632,368.737 190.456,371.228C186.528,373.574 182.096,375.444 177.403,377.423L176.368,377.86C172.027,379.693 167.304,381.324 161.5,382.992C159.455,383.58 157.485,384.229 155.58,384.858C152.274,385.949 149.151,386.978 146.201,387.498C143.184,388.028 139.887,388.158 136.395,388.296C134.389,388.374 132.315,388.456 130.203,388.618C130.167,388.621 130.132,388.624 130.097,388.627C127.202,388.881 124.435,389.304 121.757,389.712C118.812,390.161 116.029,390.586 113.382,390.74C110.741,390.895 107.926,390.78 104.944,390.662C102.25,390.554 99.462,390.439 96.561,390.517C94.181,390.579 91.829,390.702 89.554,390.82C86.161,390.996 82.965,391.174 79.806,391.134C76.443,391.105 73.048,390.885 69.453,390.652C67.335,390.514 65.216,390.378 63.096,390.278C58.168,390.048 52.336,389.743 46.437,389.225L43.639,388.983C38.867,388.574 34.359,388.187 29.856,387.591C27.828,387.322 25.794,387.091 23.76,386.86C20.119,386.447 16.681,386.057 13.343,385.454C9.482,384.757 5.635,383.829 1.561,382.848C0.085,382.493 -1.391,382.137 -2.871,381.791C-8.664,380.44 -13.913,379.078 -18.918,377.625L-20.577,377.145C-25.343,375.765 -29.844,374.462 -34.426,372.852C-38.581,371.391 -43.203,372.821 -45.807,376.373C-48.411,379.925 -48.385,384.763 -45.743,388.286C-45.59,388.491 -45.501,388.888 -45.272,390.412C-44.959,392.487 -44.531,395.328 -42.957,398.475C-42.743,398.903 -42.499,399.314 -42.228,399.705C-41.694,406.217 -40.645,414.239 -37.839,421.837C-35.005,429.509 -30.007,436.092 -23.279,441.066C-22.333,442.978 -20.982,444.251 -19.993,444.992C-19.662,445.24 -19.316,445.468 -18.956,445.673C-12.361,449.442 -4.46,453.625 4.137,456.081C4.396,456.155 4.658,456.219 4.923,456.271C7.796,456.845 10.32,457.154 12.762,457.452C14.928,457.717 16.974,457.966 19.102,458.391C19.421,458.455 19.743,458.503 20.067,458.536C22.394,458.769 24.816,459.309 27.38,459.882C29.456,460.346 31.603,460.825 33.885,461.186C37.516,461.758 41.099,462.068 44.564,462.368C46.035,462.495 47.52,462.623 49.022,462.772C49.116,462.782 49.21,462.79 49.304,462.796C56.52,463.311 64.015,463.365 71.58,462.958C79.039,462.557 86.371,461.525 92.88,460.595C95.275,460.441 97.197,459.715 98.519,459.216C98.664,459.161 98.807,459.104 98.95,459.051C99.187,459.029 99.424,458.998 99.658,458.959L100.821,458.768C103.287,458.366 106.085,457.91 108.944,457.117C109.037,457.992 109.137,458.856 109.237,459.712C109.462,461.648 109.675,463.475 109.767,465.173C109.907,467.729 109.865,469.694 109.609,471.352C106.059,472.824 102.294,474.306 98.547,475.506C94.465,476.814 90.192,477.759 85.666,478.76C84.592,478.997 83.516,479.236 82.441,479.479C80.124,480.002 77.893,480.612 75.736,481.201C72.395,482.112 69.24,482.973 66.236,483.394C61.057,484.118 55.457,484.662 49.592,485.01C46.575,485.189 43.335,484.993 39.904,484.786C37.628,484.648 35.274,484.506 32.85,484.466C26.576,484.363 21.332,484.199 16.133,483.737C15.075,483.643 14.015,483.552 12.956,483.462C8.25,483.06 3.805,482.679 -0.562,481.983C-4.469,481.362 -8.393,480.428 -12.547,479.44C-14.025,479.088 -15.503,478.737 -16.988,478.397C-18.261,478.107 -19.536,477.824 -20.812,477.541C-25.192,476.568 -29.329,475.649 -33.345,474.456C-37.027,473.361 -40.683,471.971 -44.554,470.498C-46.097,469.911 -47.64,469.324 -49.193,468.753C-51.621,467.861 -54.016,467.115 -56.333,466.395C-59.499,465.409 -62.488,464.478 -65.228,463.271C-69.532,461.41 -73.536,458.792 -78.325,455.563C-82.794,452.55 -86.797,449.342 -90.222,446.027C-93.63,442.728 -96.643,438.708 -99.834,434.451L-100.05,434.163C-103.578,429.458 -106.463,425.521 -108.812,421.263C-110.706,417.829 -112.231,413.958 -113.846,409.861C-114.25,408.836 -114.655,407.808 -115.067,406.785L-115.798,404.973C-117.623,400.456 -119.347,396.192 -120.559,391.87C-121.89,387.126 -122.801,382.248 -123.749,376.855C-124.02,373.263 -125.556,370.786 -126.467,369.361C-127.583,363.722 -128.332,358.087 -128.952,353.182C-129.218,351.079 -129.518,348.988 -129.818,346.899C-130.408,342.794 -130.965,338.916 -131.241,335.067C-131.467,331.93 -131.52,328.719 -131.576,325.32C-131.622,322.541 -131.67,319.671 -131.818,316.738C-131.82,311.493 -131.874,306.14 -131.926,300.962L-131.964,297.149C-131.996,293.783 -132.184,290.472 -132.365,287.271C-132.558,283.87 -132.74,280.656 -132.74,277.488C-132.74,274.288 -132.455,270.975 -132.153,267.469C-131.891,264.421 -131.619,261.268 -131.528,258.028C-131.447,255.162 -131.479,252.354 -131.51,249.637C-131.553,245.818 -131.595,242.21 -131.329,238.756C-131.309,238.501 -131.3,238.245 -131.3,237.989C-131.3,235.327 -131.253,232.579 -131.207,229.922C-131.159,227.166 -131.11,224.316 -131.111,221.466C-131.112,215.627 -131.19,210.289 -132.077,204.673C-131.614,200.481 -130.801,196.23 -129.944,191.754C-129.73,190.636 -129.516,189.518 -129.308,188.4C-128.324,183.124 -126.953,177.53 -125.115,171.3C-124.689,169.858 -124.281,168.409 -123.871,166.96C-122.627,162.551 -121.452,158.387 -119.839,154.591C-117.346,148.721 -114.817,143.614 -112.104,138.973C-109.249,134.085 -105.413,129.21 -102.029,124.91C-98.503,120.431 -94.275,116.254 -90.231,112.408C-85.54,107.946 -81.348,104.441 -77.039,101.379C-76.583,101.055 -76.156,100.694 -75.76,100.298C-75.602,100.14 -75.451,99.981 -75.306,99.821C-70.639,98.054 -65.888,96.351 -61.162,95.064L-59.769,94.684C-53.63,93.008 -47.824,91.422 -42.083,90.564C-39.454,90.376 -37.355,89.464 -36.045,88.894C-35.949,88.852 -35.855,88.81 -35.759,88.768C-35.7,88.761 -35.64,88.752 -35.581,88.744C-32.025,88.227 -28.438,87.9 -24.641,87.553C-22.327,87.342 -19.933,87.123 -17.54,86.857C-14.645,86.535 -11.838,86.09 -9.123,85.659C-5.776,85.128 -2.615,84.627 0.452,84.389C3.377,84.162 6.461,84.222 9.729,84.285C12.596,84.341 15.561,84.4 18.619,84.264C21.301,84.146 23.944,83.949 26.5,83.758C30.063,83.492 33.428,83.241 36.737,83.204C38.086,83.189 39.434,83.17 40.782,83.151C45.44,83.086 50.254,83.019 54.899,83.115C58.704,83.193 62.503,83.435 66.524,83.69C68.697,83.828 70.871,83.966 73.043,84.078C75.63,84.212 78.206,84.282 80.697,84.35C84.353,84.45 87.807,84.544 91.221,84.822C94.432,85.083 97.69,85.551 101.14,86.046C103.777,86.424 106.503,86.816 109.284,87.12C112.145,87.433 114.973,87.627 117.71,87.816C121.109,88.05 124.32,88.272 127.443,88.696C131.109,89.196 134.756,89.83 138.616,90.5C140.608,90.846 142.603,91.192 144.603,91.521C146.079,92.502 148.617,94.124 152.05,94.375C153.02,94.502 153.989,94.626 154.96,94.749C158.854,95.244 162.53,95.711 166.088,96.46C170.504,97.391 174.916,98.647 179.575,100.299L180.259,100.542C184.522,102.053 188.549,103.48 192.122,105.522C192.283,105.614 192.446,105.701 192.612,105.784C197.033,107.994 201.2,110.906 204.998,114.438C208.637,117.822 211.899,122.198 215.2,126.762C215.818,127.617 216.444,128.473 217.071,129.33C219.89,133.184 222.553,136.825 224.686,140.606C226.885,144.653 228.527,149.241 230.264,154.098L231.58,157.753C233.536,163.146 235.383,168.24 236.656,173.333C237.864,178.17 238.406,183.301 238.775,187.682C239.26,193.42 239.496,198.406 239.497,202.923C239.498,205.562 239.459,208.201 239.42,210.84C239.396,212.532 239.371,214.223 239.356,215.915C238.863,218.066 239.072,220.374 240.001,222.573C240.375,223.549 240.898,224.456 241.547,225.263C241.408,226.508 241.256,227.771 241.101,229.063Z" style="fill-rule:nonzero;"/>
    </g>
    <g transform="matrix(0.0144434,0,0,0.0144434,2.2061,-0.910898)">
        <path d="M190.589,207.661L190.592,205.914C190.613,199.13 190.633,192.115 188.818,184.974C186.944,177.609 183.381,170.483 177.929,163.193C171.643,154.443 163.278,149.663 155.893,145.443C155.671,145.317 155.445,145.198 155.213,145.089C150.269,142.747 144.83,140.979 138.096,139.527C132.828,138.391 126.652,137.19 120.237,137.275C113.567,137.367 107.684,138.069 102.251,139.423C95.659,141.067 90.084,143.108 85.211,145.661C80.377,148.088 75.617,151.272 71.441,154.871C66.345,159.264 62.736,164.141 60.698,169.385C58.083,165.106 55.016,161.541 52.021,158.058C51.139,157.033 50.242,155.99 49.341,154.909C49.147,154.677 48.944,154.453 48.73,154.24C43.543,149.054 37.039,143.237 28.16,139.432C22.059,136.779 15.258,134.746 7.945,133.39C1.491,132.193 -5.475,131.884 -13.348,132.441C-21.899,133.047 -28.681,134.422 -34.694,136.769C-41.091,139.266 -47.238,143.06 -53.485,148.368C-53.522,148.399 -53.558,148.43 -53.594,148.462C-58.791,153.008 -62.587,157.557 -65.199,162.37C-67.85,167.256 -68.878,172.215 -69.785,176.591C-69.915,177.217 -70.044,177.841 -70.178,178.459L-70.661,179.895C-72.039,183.969 -73.601,188.587 -74.483,193.557C-75.393,198.678 -75.862,204.115 -75.877,209.722C-76.034,212.513 -76.284,215.316 -76.549,218.279C-76.834,221.468 -77.129,224.766 -77.304,228.117C-77.48,231.501 -77.545,234.87 -77.607,238.129C-77.665,241.141 -77.719,243.985 -77.854,246.84C-77.986,249.613 -78.23,252.403 -78.488,255.356C-78.777,258.659 -79.076,262.074 -79.216,265.558C-79.358,269.105 -79.363,272.618 -79.369,276.016C-79.374,278.898 -79.379,281.621 -79.46,284.348C-79.536,286.898 -79.646,289.446 -79.756,291.991C-79.913,295.631 -80.076,299.394 -80.137,303.155C-80.201,307.068 -80.152,310.982 -80.103,314.767C-80.072,317.206 -80.041,319.64 -80.041,322.059C-80.041,324.957 -78.783,327.714 -76.593,329.614C-74.403,331.512 -71.496,332.369 -68.627,331.959C-63.133,331.175 -57.003,330.938 -49.337,331.213C-42.914,331.444 -36.272,331.683 -29.6,332.636C-26.823,333.033 -24.008,332.244 -21.84,330.465C-19.672,328.686 -18.352,326.077 -18.2,323.276C-18.078,321.027 -17.921,318.814 -17.764,316.611C-17.493,312.794 -17.212,308.846 -17.116,304.752C-16.961,298.105 -16.922,291.565 -16.905,286.043C-16.895,282.526 -17.088,279.102 -17.274,275.79C-17.437,272.887 -17.591,270.145 -17.609,267.446C-17.628,264.741 -17.428,261.924 -17.217,258.941C-16.99,255.727 -16.755,252.403 -16.776,248.944C-16.796,245.701 -17,242.554 -17.198,239.51C-17.402,236.38 -17.594,233.423 -17.578,230.555L-17.571,229.222C-17.542,223.646 -17.511,217.881 -17.36,212.267C-17.357,212.177 -17.356,212.087 -17.356,211.996C-17.356,209.213 -15.82,206.336 -14.531,204.411C-12.834,201.876 -9.699,199.411 -6.88,197.295C-3.484,194.841 0.152,193.768 4.226,194.016C8.379,194.267 11.845,195.435 14.551,197.491C15.723,199.121 16.966,200.166 17.9,200.832C19.763,203.937 20.849,207.46 21.852,211.682C22.686,215.193 22.99,219.05 23.311,223.133C23.408,224.36 23.504,225.588 23.615,226.816C23.704,228.149 23.719,228.41 23.719,229.042C23.719,229.564 23.76,230.085 23.842,230.602C24.592,235.353 24.752,240.403 24.379,247.483C24.089,252.95 23.688,259.4 22.903,265.791C22.129,272.095 21.72,278.128 21.346,285.247C21.059,290.708 25.211,295.387 30.667,295.75C34.4,295.999 38.1,296.438 42.018,296.901C43.066,297.025 44.124,297.15 45.197,297.274C47.281,297.513 49.399,297.842 51.641,298.19C54.55,298.642 57.558,299.109 60.673,299.402C64.844,299.794 68.82,299.697 72.666,299.604C73.278,299.589 73.889,299.574 74.496,299.562C76.42,299.948 78.857,299.861 81.63,298.474C85.778,296.4 87.956,291.745 86.891,287.232C86.559,285.824 85.937,284.544 85.099,283.45C84.715,278.23 84.757,273.89 85.217,269.703C85.683,265.46 86.259,261.11 86.816,256.903C87.094,254.806 87.372,252.708 87.639,250.607L87.713,250.027C88.542,243.53 89.4,236.813 89.034,229.502C89.026,229.337 89.013,229.171 88.997,229.007C88.629,225.319 89.126,221.768 90.436,218.732C91.828,215.505 94.555,212.226 97.485,208.872C98.614,207.676 99.356,206.493 99.861,205.689C99.883,205.652 99.907,205.615 99.929,205.578C103.022,203.045 107.294,201.402 111.52,201.147C115.857,200.884 119.135,202.998 121.234,204.971C123.648,208.152 125.205,211.986 125.985,216.672C126.21,218.019 125.828,220.112 125.423,222.329C124.791,225.793 124.075,229.719 124.939,234.037C125.113,234.909 125.403,235.753 125.8,236.548C126.086,237.119 126.165,237.508 126.178,237.889C125.975,243.729 125.675,249.381 125.285,254.693C125.08,257.501 124.761,260.319 124.423,263.302C124.105,266.118 123.775,269.03 123.541,271.988C123.258,275.606 123.21,279.132 123.164,282.541C123.131,285.027 123.099,287.376 122.98,289.693C122.881,291.64 122.727,293.596 122.563,295.668C122.258,299.536 121.943,303.536 121.984,307.697C122.036,313.045 122.59,318.218 123.127,323.222C123.202,323.921 123.277,324.62 123.351,325.32C123.33,325.591 123.294,325.941 123.266,326.222C122.995,328.908 122.493,333.905 126.188,337.991C128.092,340.097 130.667,341.394 133.549,341.724C140.266,343.194 146.71,343.562 152.949,343.919L155.938,344.09C160.638,344.356 165.126,344.61 169.525,345.14C169.613,345.179 169.702,345.218 169.792,345.255C170.923,345.725 172.25,346.021 173.66,346.021C176.217,346.021 179.044,345.048 181.461,342.383C183.682,339.933 184.532,336.565 183.79,333.391C183.973,330.888 184.226,328.351 184.488,325.709C184.722,323.362 184.964,320.935 185.157,318.493C185.408,315.292 185.796,312.096 186.207,308.712C186.533,306.021 186.871,303.238 187.137,300.432C187.422,297.427 187.73,294.425 188.037,291.425C188.351,288.346 188.667,285.269 188.959,282.191C189.3,278.588 189.378,275.088 189.453,271.703C189.516,268.904 189.575,266.26 189.775,263.691C189.939,261.585 190.133,259.482 190.327,257.378C190.694,253.394 191.074,249.274 191.261,245.089C191.352,243.042 191.486,241 191.627,238.838C191.893,234.778 192.168,230.581 192.148,226.266C192.127,222 191.669,217.933 191.225,214C190.977,211.796 190.741,209.71 190.589,207.661ZM171.67,237.528C171.527,239.697 171.381,241.94 171.28,244.197C171.115,247.907 170.773,251.614 170.412,255.539C170.21,257.736 170.007,259.934 169.836,262.134C169.593,265.255 169.524,268.304 169.458,271.252C169.388,274.422 169.32,277.417 169.048,280.303C168.761,283.33 168.451,286.356 168.141,289.384C167.828,292.435 167.516,295.487 167.227,298.543C166.986,301.087 166.678,303.618 166.353,306.299C165.935,309.741 165.503,313.301 165.219,316.922C165.042,319.154 164.822,321.373 164.587,323.723C164.559,324.008 164.53,324.294 164.502,324.581C161.994,324.397 159.514,324.257 157.068,324.119L154.091,323.949C150.345,323.734 146.732,323.527 143.226,323.09C143.156,322.422 143.084,321.755 143.013,321.087C142.505,316.351 142.026,311.876 141.983,307.498C141.951,304.221 142.218,300.828 142.502,297.236C142.669,295.12 142.842,292.931 142.955,290.708C143.092,288.017 143.128,285.367 143.162,282.806C143.206,279.574 143.247,276.52 143.479,273.552C143.685,270.938 143.982,268.321 144.295,265.551C144.641,262.504 144.997,259.353 145.232,256.149C145.644,250.514 145.961,244.525 146.173,238.348C146.177,238.234 146.179,238.119 146.179,238.005C146.179,235.098 145.632,232.255 144.549,229.526C144.612,228.581 144.895,227.025 145.097,225.916C145.727,222.465 146.51,218.171 145.712,213.381C144.337,205.132 141.238,197.948 136.502,192.028C136.272,191.74 136.025,191.465 135.764,191.204C128.735,184.175 119.688,180.616 110.316,181.181C101.32,181.723 92.448,185.376 85.974,191.203C85.844,191.32 85.717,191.441 85.593,191.565C84.295,192.863 83.467,194.182 82.919,195.054C82.853,195.16 82.788,195.268 82.72,195.372C82.676,195.421 82.632,195.47 82.588,195.52C78.671,199.997 74.633,204.865 72.07,210.806C69.452,216.871 68.416,223.751 69.067,230.718C69.315,236.184 68.613,241.679 67.871,247.492L67.797,248.078C67.533,250.148 67.26,252.213 66.987,254.276C66.416,258.591 65.825,263.052 65.334,267.516C64.912,271.358 64.761,275.328 64.882,279.639C64.087,279.608 63.307,279.56 62.542,279.488C60.029,279.252 57.443,278.85 54.706,278.425C52.371,278.062 49.956,277.688 47.48,277.403C46.429,277.282 45.393,277.159 44.367,277.038C43.542,276.94 42.724,276.844 41.914,276.749C42.138,273.839 42.405,271.044 42.752,268.227C43.61,261.23 44.041,254.348 44.349,248.538C44.639,243.039 44.823,235.811 43.71,228.236C43.692,227.328 43.643,226.583 43.561,225.362C43.556,225.282 43.549,225.203 43.542,225.124C43.434,223.937 43.341,222.749 43.248,221.563C42.881,216.899 42.501,212.076 41.309,207.055C39.929,201.251 37.916,194.457 33.449,188.074C33.115,187.596 32.74,187.149 32.328,186.737C31.62,186.029 30.935,185.499 30.382,185.113C29.945,184.488 29.438,183.912 28.869,183.4C22.686,177.837 14.582,174.603 5.432,174.049C-3.242,173.529 -11.585,175.984 -18.7,181.158C-18.74,181.187 -18.779,181.216 -18.818,181.245C-22.972,184.36 -27.694,188.117 -31.151,193.281C-35.236,199.381 -37.324,205.624 -37.357,211.842C-37.512,217.634 -37.543,223.47 -37.572,229.114L-37.579,230.445C-37.598,234.016 -37.373,237.466 -37.157,240.803C-36.97,243.684 -36.793,246.406 -36.777,249.06C-36.76,251.753 -36.959,254.557 -37.169,257.526C-37.398,260.757 -37.634,264.099 -37.61,267.578C-37.589,270.771 -37.413,273.891 -37.243,276.908C-37.066,280.069 -36.898,283.055 -36.906,285.979C-36.923,291.399 -36.96,297.811 -37.111,304.281C-37.17,306.774 -37.307,309.231 -37.475,311.745C-41.371,311.483 -45.12,311.349 -48.62,311.224C-52.781,311.075 -56.587,311.06 -60.144,311.185C-60.17,308.608 -60.181,306.009 -60.14,303.481C-60.082,299.988 -59.933,296.521 -59.774,292.852C-59.66,290.216 -59.546,287.58 -59.468,284.941C-59.379,281.934 -59.373,278.942 -59.368,276.049C-59.363,272.692 -59.357,269.521 -59.23,266.357C-59.11,263.346 -58.844,260.312 -58.563,257.1C-58.299,254.082 -58.026,250.961 -57.875,247.788C-57.727,244.65 -57.667,241.53 -57.609,238.512C-57.547,235.273 -57.489,232.213 -57.33,229.16C-57.174,226.18 -56.909,223.207 -56.627,220.06C-56.351,216.969 -56.065,213.772 -55.891,210.545C-55.881,210.365 -55.876,210.185 -55.876,210.005C-55.876,205.468 -55.511,201.112 -54.79,197.055C-54.171,193.568 -52.978,190.039 -51.714,186.304L-51.038,184.295C-50.929,183.969 -50.837,183.637 -50.763,183.302C-50.569,182.428 -50.385,181.543 -50.2,180.653C-49.512,177.337 -48.864,174.205 -47.619,171.912C-46.165,169.235 -43.828,166.503 -40.475,163.562C-35.969,159.741 -31.698,157.071 -27.421,155.402C-23.339,153.809 -18.417,152.853 -11.931,152.393C-5.772,151.955 -0.463,152.173 4.299,153.056C10.127,154.138 15.472,155.725 20.236,157.796C25.888,160.218 30.499,164.318 34.281,168.075C35.147,169.11 36.01,170.113 36.86,171.101C40.479,175.31 43.359,178.659 45.201,182.775C45.64,184.097 46.064,185.387 46.487,186.675C46.054,188.032 45.966,189.226 45.966,189.97C45.966,194.377 48.851,198.264 53.069,199.541C57.025,200.74 61.287,199.372 63.816,196.166C64.701,195.367 65.374,194.514 65.884,193.665C66.697,192.862 67.663,192.024 68.659,191.159C72.465,187.856 77.187,183.756 79.231,176.93C80.013,174.708 81.832,172.323 84.502,170.022C87.428,167.5 90.89,165.185 94.249,163.505C94.312,163.474 94.373,163.442 94.435,163.41C97.893,161.59 102.034,160.092 107.091,158.83C111.011,157.853 115.403,157.344 120.513,157.274C124.879,157.216 129.497,158.134 133.884,159.079C138.915,160.164 142.881,161.416 146.324,163.01C152.617,166.607 158.047,169.765 161.724,174.915C161.769,174.978 161.815,175.04 161.862,175.102C165.741,180.274 168.218,185.117 169.437,189.906C170.628,194.59 170.612,200.063 170.594,205.857L170.59,208.013C170.59,208.245 170.598,208.478 170.614,208.71C170.795,211.296 171.078,213.81 171.352,216.24C171.753,219.805 172.133,223.173 172.149,226.363C172.165,229.971 171.925,233.642 171.67,237.528Z" style="fill-rule:nonzero;"/>
    </g>
</svg>
